<svg xmlns="http://www.w3.org/2000/svg" xmlns:xlink="http://www.w3.org/1999/xlink" version="1.1" class="marks" width="640" height="461" viewBox="0 0 640 461"><rect width="640" height="461" fill="white"/><g fill="none" stroke-miterlimit="10" transform="translate(58,27)"><g class="mark-group role-frame root" role="graphics-object" aria-roledescription="group mark container"><g transform="translate(0,0)"><path class="background" aria-hidden="true" d="M0,0h500v350h-500Z" stroke="#ddd" stroke-width="0"/><g><g class="mark-group role-axis" aria-hidden="true"><g transform="translate(0.5,350.5)"><path class="background" aria-hidden="true" d="M0,0h0v0h0Z" pointer-events="none"/><g><g class="mark-rule role-axis-grid" pointer-events="none"><line transform="translate(93,-350)" x2="0" y2="350" stroke="lightgray" stroke-opacity="0.3" stroke-width="1" opacity="1"/><line transform="translate(250,-350)" x2="0" y2="350" stroke="lightgray" stroke-opacity="0.3" stroke-width="1" opacity="1"/><line transform="translate(406,-350)" x2="0" y2="350" stroke="lightgray" stroke-opacity="0.3" stroke-width="1" opacity="1"/></g></g><path class="foreground" aria-hidden="true" d="" pointer-events="none" display="none"/></g></g><g class="mark-group role-axis" aria-hidden="true"><g transform="translate(0.5,0.5)"><path class="background" aria-hidden="true" d="M0,0h0v0h0Z" pointer-events="none"/><g><g class="mark-rule role-axis-grid" pointer-events="none"><line transform="translate(0,350)" x2="500" y2="0" stroke="lightgray" stroke-opacity="0.3" stroke-width="1" opacity="1"/><line transform="translate(0,292)" x2="500" y2="0" stroke="lightgray" stroke-opacity="0.3" stroke-width="1" opacity="1"/><line transform="translate(0,233)" x2="500" y2="0" stroke="lightgray" stroke-opacity="0.3" stroke-width="1" opacity="1"/><line transform="translate(0,175)" x2="500" y2="0" stroke="lightgray" stroke-opacity="0.3" stroke-width="1" opacity="1"/><line transform="translate(0,117)" x2="500" y2="0" stroke="lightgray" stroke-opacity="0.3" stroke-width="1" opacity="1"/><line transform="translate(0,58)" x2="500" y2="0" stroke="lightgray" stroke-opacity="0.3" stroke-width="1" opacity="1"/><line transform="translate(0,0)" x2="500" y2="0" stroke="lightgray" stroke-opacity="0.3" stroke-width="1" opacity="1"/></g></g><path class="foreground" aria-hidden="true" d="" pointer-events="none" display="none"/></g></g><g class="mark-group role-axis" role="graphics-symbol" aria-roledescription="axis" aria-label="X-axis titled 'Antibiotic' for a discrete scale with 3 values: neomycin, penicilin, streptomycin"><g transform="translate(0.5,350.5)"><path class="background" aria-hidden="true" d="M0,0h0v0h0Z" pointer-events="none"/><g><g class="mark-rule role-axis-tick" pointer-events="none"><line transform="translate(93,0)" x2="0" y2="5" stroke="#888" stroke-width="1" opacity="1"/><line transform="translate(250,0)" x2="0" y2="5" stroke="#888" stroke-width="1" opacity="1"/><line transform="translate(406,0)" x2="0" y2="5" stroke="#888" stroke-width="1" opacity="1"/></g><g class="mark-text role-axis-label" pointer-events="none"><text text-anchor="end" transform="translate(93.25,7) rotate(270) translate(0,3)" font-family="sans-serif" font-size="10px" fill="#000" opacity="1">neomycin</text><text text-anchor="end" transform="translate(249.5,7) rotate(270) translate(0,3)" font-family="sans-serif" font-size="10px" fill="#000" opacity="1">penicilin</text><text text-anchor="end" transform="translate(405.75,7) rotate(270) translate(0,3)" font-family="sans-serif" font-size="10px" fill="#000" opacity="1">streptomycin</text></g><g class="mark-rule role-axis-domain" pointer-events="none"><line transform="translate(0,0)" x2="500" y2="0" stroke="#888" stroke-width="1" opacity="1"/></g><g class="mark-text role-axis-title" pointer-events="none"><text text-anchor="middle" transform="translate(250,76.6845703125)" font-family="sans-serif" font-size="11px" font-weight="bold" fill="#000" opacity="1">Antibiotic</text></g></g><path class="foreground" aria-hidden="true" d="" pointer-events="none" display="none"/></g></g><g class="mark-group role-axis" role="graphics-symbol" aria-roledescription="axis" aria-label="Y-axis titled 'Minimum Inhibitory Concentration (MIC)' for a log scale with values from 1.0e-3 to 1.0e+3"><g transform="translate(0.5,0.5)"><path class="background" aria-hidden="true" d="M0,0h0v0h0Z" pointer-events="none"/><g><g class="mark-rule role-axis-tick" pointer-events="none"><line transform="translate(0,350)" x2="-5" y2="0" stroke="#888" stroke-width="1" opacity="1"/><line transform="translate(0,292)" x2="-5" y2="0" stroke="#888" stroke-width="1" opacity="1"/><line transform="translate(0,233)" x2="-5" y2="0" stroke="#888" stroke-width="1" opacity="1"/><line transform="translate(0,175)" x2="-5" y2="0" stroke="#888" stroke-width="1" opacity="1"/><line transform="translate(0,117)" x2="-5" y2="0" stroke="#888" stroke-width="1" opacity="1"/><line transform="translate(0,58)" x2="-5" y2="0" stroke="#888" stroke-width="1" opacity="1"/><line transform="translate(0,0)" x2="-5" y2="0" stroke="#888" stroke-width="1" opacity="1"/></g><g class="mark-text role-axis-label" pointer-events="none"><text text-anchor="end" transform="translate(-7,353)" font-family="sans-serif" font-size="10px" fill="#000" opacity="1">1.0e-3</text><text text-anchor="end" transform="translate(-7,294.66666666666663)" font-family="sans-serif" font-size="10px" fill="#000" opacity="1">1.0e-2</text><text text-anchor="end" transform="translate(-7,236.33333333333331)" font-family="sans-serif" font-size="10px" fill="#000" opacity="1">1.0e-1</text><text text-anchor="end" transform="translate(-7,178)" font-family="sans-serif" font-size="10px" fill="#000" opacity="1">1.0e+0</text><text text-anchor="end" transform="translate(-7,119.66666666666664)" font-family="sans-serif" font-size="10px" fill="#000" opacity="1">1.0e+1</text><text text-anchor="end" transform="translate(-7,61.33333333333332)" font-family="sans-serif" font-size="10px" fill="#000" opacity="1">1.0e+2</text><text text-anchor="end" transform="translate(-7,3)" font-family="sans-serif" font-size="10px" fill="#000" opacity="1">1.0e+3</text></g><g class="mark-rule role-axis-domain" pointer-events="none"><line transform="translate(0,350)" x2="0" y2="-350" stroke="#888" stroke-width="1" opacity="1"/></g><g class="mark-text role-axis-title" pointer-events="none"><text text-anchor="middle" transform="translate(-41.8642578125,175) rotate(-90) translate(0,-2)" font-family="sans-serif" font-size="11px" font-weight="bold" fill="#000" opacity="1">Minimum Inhibitory Concentration (MIC)</text></g></g><path class="foreground" aria-hidden="true" d="" pointer-events="none" display="none"/></g></g><g class="mark-symbol role-mark layer_0_marks" role="graphics-object" aria-roledescription="symbol mark container"><path aria-label="Antibiotic: penicilin; Minimum Inhibitory Concentration (MIC): 8.7e+2; gram_staining: negative; Gram Stain: negative; bacteria: Aerobacter aerogenes; antibiotic: penicilin; mic: 870" role="graphics-symbol" aria-roledescription="circle" transform="translate(218.75,3.528043597247282)" d="M2.236,0A2.236,2.236,0,1,1,-2.236,0A2.236,2.236,0,1,1,2.236,0" fill="#4c78a8" stroke-width="2" opacity="0.2"/><path aria-label="Antibiotic: penicilin; Minimum Inhibitory Concentration (MIC): 1.0e+0; gram_staining: negative; Gram Stain: negative; bacteria: Brucella abortus; antibiotic: penicilin; mic: 1" role="graphics-symbol" aria-roledescription="circle" transform="translate(218.75,175)" d="M2.236,0A2.236,2.236,0,1,1,-2.236,0A2.236,2.236,0,1,1,2.236,0" fill="#4c78a8" stroke-width="2" opacity="0.2"/><path aria-label="Antibiotic: penicilin; Minimum Inhibitory Concentration (MIC): 1.0e-3; gram_staining: positive; Gram Stain: positive; bacteria: Brucella anthracis; antibiotic: penicilin; mic: 0.001" role="graphics-symbol" aria-roledescription="circle" transform="translate(281.25,350)" d="M2.236,0A2.236,2.236,0,1,1,-2.236,0A2.236,2.236,0,1,1,2.236,0" fill="#f58518" stroke-width="2" opacity="0.2"/><path aria-label="Antibiotic: penicilin; Minimum Inhibitory Concentration (MIC): 5.0e-3; gram_staining: positive; Gram Stain: positive; bacteria: Diplococcus pneumoniae; antibiotic: penicilin; mic: 0.005" role="graphics-symbol" aria-roledescription="circle" transform="translate(281.25,309.2267497470656)" d="M2.236,0A2.236,2.236,0,1,1,-2.236,0A2.236,2.236,0,1,1,2.236,0" fill="#f58518" stroke-width="2" opacity="0.2"/><path aria-label="Antibiotic: penicilin; Minimum Inhibitory Concentration (MIC): 1.0e+2; gram_staining: negative; Gram Stain: negative; bacteria: Escherichia coli; antibiotic: penicilin; mic: 100" role="graphics-symbol" aria-roledescription="circle" transform="translate(218.75,58.33333333333332)" d="M2.236,0A2.236,2.236,0,1,1,-2.236,0A2.236,2.236,0,1,1,2.236,0" fill="#4c78a8" stroke-width="2" opacity="0.2"/><path aria-label="Antibiotic: penicilin; Minimum Inhibitory Concentration (MIC): 8.5e+2; gram_staining: negative; Gram Stain: negative; bacteria: Klebsiella pneumoniae; antibiotic: penicilin; mic: 850" role="graphics-symbol" aria-roledescription="circle" transform="translate(218.75,4.117229333332917)" d="M2.236,0A2.236,2.236,0,1,1,-2.236,0A2.236,2.236,0,1,1,2.236,0" fill="#4c78a8" stroke-width="2" opacity="0.2"/><path aria-label="Antibiotic: penicilin; Minimum Inhibitory Concentration (MIC): 8.0e+2; gram_staining: negative; Gram Stain: negative; bacteria: Mycobacterium tuberculosis; antibiotic: penicilin; mic: 800" role="graphics-symbol" aria-roledescription="circle" transform="translate(218.75,5.653084092136601)" d="M2.236,0A2.236,2.236,0,1,1,-2.236,0A2.236,2.236,0,1,1,2.236,0" fill="#4c78a8" stroke-width="2" opacity="0.2"/><path aria-label="Antibiotic: penicilin; Minimum Inhibitory Concentration (MIC): 3.0e+0; gram_staining: negative; Gram Stain: negative; bacteria: Proteus vulgaris; antibiotic: penicilin; mic: 3" role="graphics-symbol" aria-roledescription="circle" transform="translate(218.75,147.1679268080197)" d="M2.236,0A2.236,2.236,0,1,1,-2.236,0A2.236,2.236,0,1,1,2.236,0" fill="#4c78a8" stroke-width="2" opacity="0.2"/><path aria-label="Antibiotic: penicilin; Minimum Inhibitory Concentration (MIC): 8.5e+2; gram_staining: negative; Gram Stain: negative; bacteria: Pseudomonas aeruginosa ; antibiotic: penicilin; mic: 850" role="graphics-symbol" aria-roledescription="circle" transform="translate(218.75,4.117229333332917)" d="M2.236,0A2.236,2.236,0,1,1,-2.236,0A2.236,2.236,0,1,1,2.236,0" fill="#4c78a8" stroke-width="2" opacity="0.2"/><path aria-label="Antibiotic: penicilin; Minimum Inhibitory Concentration (MIC): 1.0e+0; gram_staining: negative; Gram Stain: negative; bacteria: Salmonella (Eberthella) typhosa ; antibiotic: penicilin; mic: 1" role="graphics-symbol" aria-roledescription="circle" transform="translate(218.75,175)" d="M2.236,0A2.236,2.236,0,1,1,-2.236,0A2.236,2.236,0,1,1,2.236,0" fill="#4c78a8" stroke-width="2" opacity="0.2"/><path aria-label="Antibiotic: penicilin; Minimum Inhibitory Concentration (MIC): 1.0e+1; gram_staining: negative; Gram Stain: negative; bacteria: Salmonella schottmuelleri ; antibiotic: penicilin; mic: 10" role="graphics-symbol" aria-roledescription="circle" transform="translate(218.75,116.66666666666664)" d="M2.236,0A2.236,2.236,0,1,1,-2.236,0A2.236,2.236,0,1,1,2.236,0" fill="#4c78a8" stroke-width="2" opacity="0.2"/><path aria-label="Antibiotic: penicilin; Minimum Inhibitory Concentration (MIC): 7.0e-3; gram_staining: positive; Gram Stain: positive; bacteria: Staphylococcus albus ; antibiotic: penicilin; mic: 0.007" role="graphics-symbol" aria-roledescription="circle" transform="translate(281.25,300.70261433250164)" d="M2.236,0A2.236,2.236,0,1,1,-2.236,0A2.236,2.236,0,1,1,2.236,0" fill="#f58518" stroke-width="2" opacity="0.2"/><path aria-label="Antibiotic: penicilin; Minimum Inhibitory Concentration (MIC): 3.0e-2; gram_staining: positive; Gram Stain: positive; bacteria: Staphylococcus aureus ; antibiotic: penicilin; mic: 0.03" role="graphics-symbol" aria-roledescription="circle" transform="translate(281.25,263.83459347468636)" d="M2.236,0A2.236,2.236,0,1,1,-2.236,0A2.236,2.236,0,1,1,2.236,0" fill="#f58518" stroke-width="2" opacity="0.2"/><path aria-label="Antibiotic: penicilin; Minimum Inhibitory Concentration (MIC): 1.0e+0; gram_staining: positive; Gram Stain: positive; bacteria: Streptococcus fecalis ; antibiotic: penicilin; mic: 1" role="graphics-symbol" aria-roledescription="circle" transform="translate(281.25,175)" d="M2.236,0A2.236,2.236,0,1,1,-2.236,0A2.236,2.236,0,1,1,2.236,0" fill="#f58518" stroke-width="2" opacity="0.2"/><path aria-label="Antibiotic: penicilin; Minimum Inhibitory Concentration (MIC): 1.0e-3; gram_staining: positive; Gram Stain: positive; bacteria: Streptococcus hemolyticus ; antibiotic: penicilin; mic: 0.001" role="graphics-symbol" aria-roledescription="circle" transform="translate(281.25,350)" d="M2.236,0A2.236,2.236,0,1,1,-2.236,0A2.236,2.236,0,1,1,2.236,0" fill="#f58518" stroke-width="2" opacity="0.2"/><path aria-label="Antibiotic: penicilin; Minimum Inhibitory Concentration (MIC): 5.0e-3; gram_staining: positive; Gram Stain: positive; bacteria: Streptococcus viridans; antibiotic: penicilin; mic: 0.005" role="graphics-symbol" aria-roledescription="circle" transform="translate(281.25,309.2267497470656)" d="M2.236,0A2.236,2.236,0,1,1,-2.236,0A2.236,2.236,0,1,1,2.236,0" fill="#f58518" stroke-width="2" opacity="0.2"/><path aria-label="Antibiotic: streptomycin; Minimum Inhibitory Concentration (MIC): 1.0e+0; gram_staining: negative; Gram Stain: negative; bacteria: Aerobacter aerogenes; antibiotic: streptomycin; mic: 1" role="graphics-symbol" aria-roledescription="circle" transform="translate(375,175)" d="M2.236,0A2.236,2.236,0,1,1,-2.236,0A2.236,2.236,0,1,1,2.236,0" fill="#4c78a8" stroke-width="2" opacity="0.2"/><path aria-label="Antibiotic: streptomycin; Minimum Inhibitory Concentration (MIC): 2.0e+0; gram_staining: negative; Gram Stain: negative; bacteria: Brucella abortus; antibiotic: streptomycin; mic: 2" role="graphics-symbol" aria-roledescription="circle" transform="translate(375,157.43991691960107)" d="M2.236,0A2.236,2.236,0,1,1,-2.236,0A2.236,2.236,0,1,1,2.236,0" fill="#4c78a8" stroke-width="2" opacity="0.2"/><path aria-label="Antibiotic: streptomycin; Minimum Inhibitory Concentration (MIC): 1.0e-2; gram_staining: positive; Gram Stain: positive; bacteria: Brucella anthracis; antibiotic: streptomycin; mic: 0.01" role="graphics-symbol" aria-roledescription="circle" transform="translate(437.5,291.66666666666663)" d="M2.236,0A2.236,2.236,0,1,1,-2.236,0A2.236,2.236,0,1,1,2.236,0" fill="#f58518" stroke-width="2" opacity="0.2"/><path aria-label="Antibiotic: streptomycin; Minimum Inhibitory Concentration (MIC): 1.1e+1; gram_staining: positive; Gram Stain: positive; bacteria: Diplococcus pneumoniae; antibiotic: streptomycin; mic: 11" role="graphics-symbol" aria-roledescription="circle" transform="translate(437.5,114.25209336577021)" d="M2.236,0A2.236,2.236,0,1,1,-2.236,0A2.236,2.236,0,1,1,2.236,0" fill="#f58518" stroke-width="2" opacity="0.2"/><path aria-label="Antibiotic: streptomycin; Minimum Inhibitory Concentration (MIC): 4.0e-1; gram_staining: negative; Gram Stain: negative; bacteria: Escherichia coli; antibiotic: streptomycin; mic: 0.4" role="graphics-symbol" aria-roledescription="circle" transform="translate(375,198.21316717253552)" d="M2.236,0A2.236,2.236,0,1,1,-2.236,0A2.236,2.236,0,1,1,2.236,0" fill="#4c78a8" stroke-width="2" opacity="0.2"/><path aria-label="Antibiotic: streptomycin; Minimum Inhibitory Concentration (MIC): 1.2e+0; gram_staining: negative; Gram Stain: negative; bacteria: Klebsiella pneumoniae; antibiotic: streptomycin; mic: 1.2" role="graphics-symbol" aria-roledescription="circle" transform="translate(375,170.38109398055522)" d="M2.236,0A2.236,2.236,0,1,1,-2.236,0A2.236,2.236,0,1,1,2.236,0" fill="#4c78a8" stroke-width="2" opacity="0.2"/><path aria-label="Antibiotic: streptomycin; Minimum Inhibitory Concentration (MIC): 5.0e+0; gram_staining: negative; Gram Stain: negative; bacteria: Mycobacterium tuberculosis; antibiotic: streptomycin; mic: 5" role="graphics-symbol" aria-roledescription="circle" transform="translate(375,134.2267497470656)" d="M2.236,0A2.236,2.236,0,1,1,-2.236,0A2.236,2.236,0,1,1,2.236,0" fill="#4c78a8" stroke-width="2" opacity="0.2"/><path aria-label="Antibiotic: streptomycin; Minimum Inhibitory Concentration (MIC): 1.0e-1; gram_staining: negative; Gram Stain: negative; bacteria: Proteus vulgaris; antibiotic: streptomycin; mic: 0.1" role="graphics-symbol" aria-roledescription="circle" transform="translate(375,233.33333333333331)" d="M2.236,0A2.236,2.236,0,1,1,-2.236,0A2.236,2.236,0,1,1,2.236,0" fill="#4c78a8" stroke-width="2" opacity="0.2"/><path aria-label="Antibiotic: streptomycin; Minimum Inhibitory Concentration (MIC): 2.0e+0; gram_staining: negative; Gram Stain: negative; bacteria: Pseudomonas aeruginosa ; antibiotic: streptomycin; mic: 2" role="graphics-symbol" aria-roledescription="circle" transform="translate(375,157.43991691960107)" d="M2.236,0A2.236,2.236,0,1,1,-2.236,0A2.236,2.236,0,1,1,2.236,0" fill="#4c78a8" stroke-width="2" opacity="0.2"/><path aria-label="Antibiotic: streptomycin; Minimum Inhibitory Concentration (MIC): 4.0e-1; gram_staining: negative; Gram Stain: negative; bacteria: Salmonella (Eberthella) typhosa ; antibiotic: streptomycin; mic: 0.4" role="graphics-symbol" aria-roledescription="circle" transform="translate(375,198.21316717253552)" d="M2.236,0A2.236,2.236,0,1,1,-2.236,0A2.236,2.236,0,1,1,2.236,0" fill="#4c78a8" stroke-width="2" opacity="0.2"/><path aria-label="Antibiotic: streptomycin; Minimum Inhibitory Concentration (MIC): 8.0e-1; gram_staining: negative; Gram Stain: negative; bacteria: Salmonella schottmuelleri ; antibiotic: streptomycin; mic: 0.8" role="graphics-symbol" aria-roledescription="circle" transform="translate(375,180.65308409213665)" d="M2.236,0A2.236,2.236,0,1,1,-2.236,0A2.236,2.236,0,1,1,2.236,0" fill="#4c78a8" stroke-width="2" opacity="0.2"/><path aria-label="Antibiotic: streptomycin; Minimum Inhibitory Concentration (MIC): 1.0e-1; gram_staining: positive; Gram Stain: positive; bacteria: Staphylococcus albus ; antibiotic: streptomycin; mic: 0.1" role="graphics-symbol" aria-roledescription="circle" transform="translate(437.5,233.33333333333331)" d="M2.236,0A2.236,2.236,0,1,1,-2.236,0A2.236,2.236,0,1,1,2.236,0" fill="#f58518" stroke-width="2" opacity="0.2"/><path aria-label="Antibiotic: streptomycin; Minimum Inhibitory Concentration (MIC): 3.0e-2; gram_staining: positive; Gram Stain: positive; bacteria: Staphylococcus aureus ; antibiotic: streptomycin; mic: 0.03" role="graphics-symbol" aria-roledescription="circle" transform="translate(437.5,263.83459347468636)" d="M2.236,0A2.236,2.236,0,1,1,-2.236,0A2.236,2.236,0,1,1,2.236,0" fill="#f58518" stroke-width="2" opacity="0.2"/><path aria-label="Antibiotic: streptomycin; Minimum Inhibitory Concentration (MIC): 1.0e+0; gram_staining: positive; Gram Stain: positive; bacteria: Streptococcus fecalis ; antibiotic: streptomycin; mic: 1" role="graphics-symbol" aria-roledescription="circle" transform="translate(437.5,175)" d="M2.236,0A2.236,2.236,0,1,1,-2.236,0A2.236,2.236,0,1,1,2.236,0" fill="#f58518" stroke-width="2" opacity="0.2"/><path aria-label="Antibiotic: streptomycin; Minimum Inhibitory Concentration (MIC): 1.4e+1; gram_staining: positive; Gram Stain: positive; bacteria: Streptococcus hemolyticus ; antibiotic: streptomycin; mic: 14" role="graphics-symbol" aria-roledescription="circle" transform="translate(437.5,108.14253125210278)" d="M2.236,0A2.236,2.236,0,1,1,-2.236,0A2.236,2.236,0,1,1,2.236,0" fill="#f58518" stroke-width="2" opacity="0.2"/><path aria-label="Antibiotic: streptomycin; Minimum Inhibitory Concentration (MIC): 1.0e+1; gram_staining: positive; Gram Stain: positive; bacteria: Streptococcus viridans; antibiotic: streptomycin; mic: 10" role="graphics-symbol" aria-roledescription="circle" transform="translate(437.5,116.66666666666664)" d="M2.236,0A2.236,2.236,0,1,1,-2.236,0A2.236,2.236,0,1,1,2.236,0" fill="#f58518" stroke-width="2" opacity="0.2"/><path aria-label="Antibiotic: neomycin; Minimum Inhibitory Concentration (MIC): 1.6e+0; gram_staining: negative; Gram Stain: negative; bacteria: Aerobacter aerogenes; antibiotic: neomycin; mic: 1.6" role="graphics-symbol" aria-roledescription="circle" transform="translate(62.5,163.09300101173773)" d="M2.236,0A2.236,2.236,0,1,1,-2.236,0A2.236,2.236,0,1,1,2.236,0" fill="#4c78a8" stroke-width="2" opacity="0.2"/><path aria-label="Antibiotic: neomycin; Minimum Inhibitory Concentration (MIC): 2.0e-2; gram_staining: negative; Gram Stain: negative; bacteria: Brucella abortus; antibiotic: neomycin; mic: 0.02" role="graphics-symbol" aria-roledescription="circle" transform="translate(62.5,274.1065835862678)" d="M2.236,0A2.236,2.236,0,1,1,-2.236,0A2.236,2.236,0,1,1,2.236,0" fill="#4c78a8" stroke-width="2" opacity="0.2"/><path aria-label="Antibiotic: neomycin; Minimum Inhibitory Concentration (MIC): 7.0e-3; gram_staining: positive; Gram Stain: positive; bacteria: Brucella anthracis; antibiotic: neomycin; mic: 0.007" role="graphics-symbol" aria-roledescription="circle" transform="translate(125,300.70261433250164)" d="M2.236,0A2.236,2.236,0,1,1,-2.236,0A2.236,2.236,0,1,1,2.236,0" fill="#f58518" stroke-width="2" opacity="0.2"/><path aria-label="Antibiotic: neomycin; Minimum Inhibitory Concentration (MIC): 1.0e+1; gram_staining: positive; Gram Stain: positive; bacteria: Diplococcus pneumoniae; antibiotic: neomycin; mic: 10" role="graphics-symbol" aria-roledescription="circle" transform="translate(125,116.66666666666664)" d="M2.236,0A2.236,2.236,0,1,1,-2.236,0A2.236,2.236,0,1,1,2.236,0" fill="#f58518" stroke-width="2" opacity="0.2"/><path aria-label="Antibiotic: neomycin; Minimum Inhibitory Concentration (MIC): 1.0e-1; gram_staining: negative; Gram Stain: negative; bacteria: Escherichia coli; antibiotic: neomycin; mic: 0.1" role="graphics-symbol" aria-roledescription="circle" transform="translate(62.5,233.33333333333331)" d="M2.236,0A2.236,2.236,0,1,1,-2.236,0A2.236,2.236,0,1,1,2.236,0" fill="#4c78a8" stroke-width="2" opacity="0.2"/><path aria-label="Antibiotic: neomycin; Minimum Inhibitory Concentration (MIC): 1.0e+0; gram_staining: negative; Gram Stain: negative; bacteria: Klebsiella pneumoniae; antibiotic: neomycin; mic: 1" role="graphics-symbol" aria-roledescription="circle" transform="translate(62.5,175)" d="M2.236,0A2.236,2.236,0,1,1,-2.236,0A2.236,2.236,0,1,1,2.236,0" fill="#4c78a8" stroke-width="2" opacity="0.2"/><path aria-label="Antibiotic: neomycin; Minimum Inhibitory Concentration (MIC): 2.0e+0; gram_staining: negative; Gram Stain: negative; bacteria: Mycobacterium tuberculosis; antibiotic: neomycin; mic: 2" role="graphics-symbol" aria-roledescription="circle" transform="translate(62.5,157.43991691960107)" d="M2.236,0A2.236,2.236,0,1,1,-2.236,0A2.236,2.236,0,1,1,2.236,0" fill="#4c78a8" stroke-width="2" opacity="0.2"/><path aria-label="Antibiotic: neomycin; Minimum Inhibitory Concentration (MIC): 1.0e-1; gram_staining: negative; Gram Stain: negative; bacteria: Proteus vulgaris; antibiotic: neomycin; mic: 0.1" role="graphics-symbol" aria-roledescription="circle" transform="translate(62.5,233.33333333333331)" d="M2.236,0A2.236,2.236,0,1,1,-2.236,0A2.236,2.236,0,1,1,2.236,0" fill="#4c78a8" stroke-width="2" opacity="0.2"/><path aria-label="Antibiotic: neomycin; Minimum Inhibitory Concentration (MIC): 4.0e-1; gram_staining: negative; Gram Stain: negative; bacteria: Pseudomonas aeruginosa ; antibiotic: neomycin; mic: 0.4" role="graphics-symbol" aria-roledescription="circle" transform="translate(62.5,198.21316717253552)" d="M2.236,0A2.236,2.236,0,1,1,-2.236,0A2.236,2.236,0,1,1,2.236,0" fill="#4c78a8" stroke-width="2" opacity="0.2"/><path aria-label="Antibiotic: neomycin; Minimum Inhibitory Concentration (MIC): 8.0e-3; gram_staining: negative; Gram Stain: negative; bacteria: Salmonella (Eberthella) typhosa ; antibiotic: neomycin; mic: 0.008" role="graphics-symbol" aria-roledescription="circle" transform="translate(62.5,297.31975075880325)" d="M2.236,0A2.236,2.236,0,1,1,-2.236,0A2.236,2.236,0,1,1,2.236,0" fill="#4c78a8" stroke-width="2" opacity="0.2"/><path aria-label="Antibiotic: neomycin; Minimum Inhibitory Concentration (MIC): 9.0e-2; gram_staining: negative; Gram Stain: negative; bacteria: Salmonella schottmuelleri ; antibiotic: neomycin; mic: 0.09" role="graphics-symbol" aria-roledescription="circle" transform="translate(62.5,236.00252028270603)" d="M2.236,0A2.236,2.236,0,1,1,-2.236,0A2.236,2.236,0,1,1,2.236,0" fill="#4c78a8" stroke-width="2" opacity="0.2"/><path aria-label="Antibiotic: neomycin; Minimum Inhibitory Concentration (MIC): 1.0e-3; gram_staining: positive; Gram Stain: positive; bacteria: Staphylococcus albus ; antibiotic: neomycin; mic: 0.001" role="graphics-symbol" aria-roledescription="circle" transform="translate(125,350)" d="M2.236,0A2.236,2.236,0,1,1,-2.236,0A2.236,2.236,0,1,1,2.236,0" fill="#f58518" stroke-width="2" opacity="0.2"/><path aria-label="Antibiotic: neomycin; Minimum Inhibitory Concentration (MIC): 1.0e-3; gram_staining: positive; Gram Stain: positive; bacteria: Staphylococcus aureus ; antibiotic: neomycin; mic: 0.001" role="graphics-symbol" aria-roledescription="circle" transform="translate(125,350)" d="M2.236,0A2.236,2.236,0,1,1,-2.236,0A2.236,2.236,0,1,1,2.236,0" fill="#f58518" stroke-width="2" opacity="0.2"/><path aria-label="Antibiotic: neomycin; Minimum Inhibitory Concentration (MIC): 1.0e-1; gram_staining: positive; Gram Stain: positive; bacteria: Streptococcus fecalis ; antibiotic: neomycin; mic: 0.1" role="graphics-symbol" aria-roledescription="circle" transform="translate(125,233.33333333333331)" d="M2.236,0A2.236,2.236,0,1,1,-2.236,0A2.236,2.236,0,1,1,2.236,0" fill="#f58518" stroke-width="2" opacity="0.2"/><path aria-label="Antibiotic: neomycin; Minimum Inhibitory Concentration (MIC): 1.0e+1; gram_staining: positive; Gram Stain: positive; bacteria: Streptococcus hemolyticus ; antibiotic: neomycin; mic: 10" role="graphics-symbol" aria-roledescription="circle" transform="translate(125,116.66666666666664)" d="M2.236,0A2.236,2.236,0,1,1,-2.236,0A2.236,2.236,0,1,1,2.236,0" fill="#f58518" stroke-width="2" opacity="0.2"/><path aria-label="Antibiotic: neomycin; Minimum Inhibitory Concentration (MIC): 4.0e+1; gram_staining: positive; Gram Stain: positive; bacteria: Streptococcus viridans; antibiotic: neomycin; mic: 40" role="graphics-symbol" aria-roledescription="circle" transform="translate(125,81.54650050586888)" d="M2.236,0A2.236,2.236,0,1,1,-2.236,0A2.236,2.236,0,1,1,2.236,0" fill="#f58518" stroke-width="2" opacity="0.2"/></g><g class="mark-symbol role-mark layer_1_layer_0_layer_0_marks" role="graphics-object" aria-roledescription="symbol mark container"><path aria-label="Antibiotic: penicilin; Minimum Inhibitory Concentration (MIC): 1.0e+0; gram_staining: positive; Gram Stain: positive" role="graphics-symbol" aria-roledescription="point" transform="translate(281.25,175)" d="M2.739,0A2.739,2.739,0,1,1,-2.739,0A2.739,2.739,0,1,1,2.739,0" stroke="#f58518" stroke-width="2" opacity="0.7"/><path aria-label="Antibiotic: streptomycin; Minimum Inhibitory Concentration (MIC): 5.0e+0; gram_staining: negative; Gram Stain: negative" role="graphics-symbol" aria-roledescription="point" transform="translate(375,134.2267497470656)" d="M2.739,0A2.739,2.739,0,1,1,-2.739,0A2.739,2.739,0,1,1,2.739,0" stroke="#4c78a8" stroke-width="2" opacity="0.7"/><path aria-label="Antibiotic: neomycin; Minimum Inhibitory Concentration (MIC): 4.0e+1; gram_staining: positive; Gram Stain: positive" role="graphics-symbol" aria-roledescription="point" transform="translate(125,81.54650050586888)" d="M2.739,0A2.739,2.739,0,1,1,-2.739,0A2.739,2.739,0,1,1,2.739,0" stroke="#f58518" stroke-width="2" opacity="0.7"/></g><g class="mark-rule role-mark layer_1_layer_0_layer_1_layer_0_marks" aria-hidden="true"><line transform="translate(218.75,175)" x2="0" y2="-27.8320731919803" stroke="black"/><line transform="translate(281.25,350)" x2="0" y2="-27.832073191980328" stroke="black"/><line transform="translate(375,233.33333333333331)" x2="0" y2="-35.120166160797794" stroke="black"/><line transform="translate(437.5,291.66666666666663)" x2="0" y2="-47.41994580416653" stroke="black"/><line transform="translate(62.5,297.31975075880325)" x2="0" y2="-61.31723047609722" stroke="black"/><line transform="translate(125,350)" x2="0" y2="-35.120166160797794" stroke="black"/></g><g class="mark-rule role-mark layer_1_layer_0_layer_1_layer_1_marks" aria-hidden="true"><line transform="translate(218.75,4.117229333332917)" x2="0" y2="-0.5891857360856347" stroke="black"/><line transform="translate(281.25,276.0816491764908)" x2="0" y2="-12.24705570180447" stroke="black"/><line transform="translate(375,157.43991691960107)" x2="0" y2="0" stroke="black"/><line transform="translate(437.5,115.43062422092028)" x2="0" y2="-7.2880929688174945" stroke="black"/><line transform="translate(62.5,175)" x2="0" y2="-17.560083080398925" stroke="black"/><line transform="translate(125,116.66666666666664)" x2="0" y2="0" stroke="black"/></g><g class="mark-rect role-mark layer_1_layer_1_layer_0_marks" role="graphics-object" aria-roledescription="rect mark container"><path aria-label="Antibiotic: penicilin; Minimum Inhibitory Concentration (MIC): 3.0e+0; upper_box_mic: 850; gram_staining: negative; Gram Stain: negative; Max of Minimum Inhibitory Concentration (MIC): 870; Q3 of Minimum Inhibitory Concentration (MIC): 850; Median of Minimum Inhibitory Concentration (MIC): 100; Q1 of Minimum Inhibitory Concentration (MIC): 3; Min of Minimum Inhibitory Concentration (MIC): 1" role="graphics-symbol" aria-roledescription="box" d="M203.75,4.117229333332917h30v143.05069747468679h-30Z" fill="#4c78a8"/><path aria-label="Antibiotic: penicilin; Minimum Inhibitory Concentration (MIC): 3.0e-3; upper_box_mic: 0.0185; gram_staining: positive; Gram Stain: positive; Max of Minimum Inhibitory Concentration (MIC): 1; Q3 of Minimum Inhibitory Concentration (MIC): 0.0185; Median of Minimum Inhibitory Concentration (MIC): 0.005; Q1 of Minimum Inhibitory Concentration (MIC): 0.003; Min of Minimum Inhibitory Concentration (MIC): 0.001" role="graphics-symbol" aria-roledescription="box" d="M266.25,276.0816491764908h30v46.086277631528844h-30Z" fill="#f58518"/><path aria-label="Antibiotic: streptomycin; Minimum Inhibitory Concentration (MIC): 4.0e-1; upper_box_mic: 2; gram_staining: negative; Gram Stain: negative; Max of Minimum Inhibitory Concentration (MIC): 5; Q3 of Minimum Inhibitory Concentration (MIC): 2; Median of Minimum Inhibitory Concentration (MIC): 1; Q1 of Minimum Inhibitory Concentration (MIC): 0.4; Min of Minimum Inhibitory Concentration (MIC): 0.1" role="graphics-symbol" aria-roledescription="box" d="M360,157.43991691960107h30v40.773250252934446h-30Z" fill="#4c78a8"/><path aria-label="Antibiotic: streptomycin; Minimum Inhibitory Concentration (MIC): 6.5e-2; upper_box_mic: 10.5; gram_staining: positive; Gram Stain: positive; Max of Minimum Inhibitory Concentration (MIC): 14; Q3 of Minimum Inhibitory Concentration (MIC): 10.5; Median of Minimum Inhibitory Concentration (MIC): 1; Q1 of Minimum Inhibitory Concentration (MIC): 0.065; Min of Minimum Inhibitory Concentration (MIC): 0.01" role="graphics-symbol" aria-roledescription="box" d="M422.5,115.43062422092028h30v128.8160966415798h-30Z" fill="#f58518"/><path aria-label="Antibiotic: neomycin; Minimum Inhibitory Concentration (MIC): 9.0e-2; upper_box_mic: 1; gram_staining: negative; Gram Stain: negative; Max of Minimum Inhibitory Concentration (MIC): 2; Q3 of Minimum Inhibitory Concentration (MIC): 1; Median of Minimum Inhibitory Concentration (MIC): 0.1; Q1 of Minimum Inhibitory Concentration (MIC): 0.09; Min of Minimum Inhibitory Concentration (MIC): 0.008" role="graphics-symbol" aria-roledescription="box" d="M47.5,175h30v61.00252028270603h-30Z" fill="#4c78a8"/><path aria-label="Antibiotic: neomycin; Minimum Inhibitory Concentration (MIC): 4.0e-3; upper_box_mic: 10; gram_staining: positive; Gram Stain: positive; Max of Minimum Inhibitory Concentration (MIC): 40; Q3 of Minimum Inhibitory Concentration (MIC): 10; Median of Minimum Inhibitory Concentration (MIC): 0.1; Q1 of Minimum Inhibitory Concentration (MIC): 0.004; Min of Minimum Inhibitory Concentration (MIC): 0.001" role="graphics-symbol" aria-roledescription="box" d="M110,116.66666666666664h30v198.21316717253558h-30Z" fill="#f58518"/></g><g class="mark-rect role-mark layer_1_layer_1_layer_1_marks" aria-hidden="true"><path d="M203.75,57.83333333333332h30v1h-30Z" fill="white" opacity="0.7"/><path d="M266.25,308.7267497470656h30v1h-30Z" fill="white" opacity="0.7"/><path d="M360,174.5h30v1h-30Z" fill="white" opacity="0.7"/><path d="M422.5,174.5h30v1h-30Z" fill="white" opacity="0.7"/><path d="M47.5,232.83333333333331h30v1h-30Z" fill="white" opacity="0.7"/><path d="M110,232.83333333333331h30v1h-30Z" fill="white" opacity="0.7"/></g><g class="mark-group role-legend" role="graphics-symbol" aria-roledescription="legend" aria-label="Symbol legend titled 'Gram Stain' for fill color and stroke color with 2 values: negative, positive"><g transform="translate(518,0)"><path class="background" aria-hidden="true" d="M0,0h59v45h-59Z" pointer-events="none"/><g><g class="mark-group role-legend-entry"><g transform="translate(0,16)"><path class="background" aria-hidden="true" d="M0,0h0v0h0Z" pointer-events="none"/><g><g class="mark-group role-scope" role="graphics-object" aria-roledescription="group mark container"><g transform="translate(0,0)"><path class="background" aria-hidden="true" d="M0,0h53.8076171875v12.5h-53.8076171875Z" pointer-events="none" opacity="1"/><g><g class="mark-symbol role-legend-symbol" pointer-events="none"><path transform="translate(6,6)" d="M5,0A5,5,0,1,1,-5,0A5,5,0,1,1,5,0" fill="#4c78a8" stroke="#4c78a8" stroke-width="1.5" opacity="0.2"/></g><g class="mark-text role-legend-label" pointer-events="none"><text text-anchor="start" transform="translate(16,9)" font-family="sans-serif" font-size="10px" fill="#000" opacity="1">negative</text></g></g><path class="foreground" aria-hidden="true" d="" pointer-events="none" display="none"/></g><g transform="translate(0,16)"><path class="background" aria-hidden="true" d="M0,0h53.8076171875v12.5h-53.8076171875Z" pointer-events="none" opacity="1"/><g><g class="mark-symbol role-legend-symbol" pointer-events="none"><path transform="translate(6,6)" d="M5,0A5,5,0,1,1,-5,0A5,5,0,1,1,5,0" fill="#f58518" stroke="#f58518" stroke-width="1.5" opacity="0.2"/></g><g class="mark-text role-legend-label" pointer-events="none"><text text-anchor="start" transform="translate(16,9)" font-family="sans-serif" font-size="10px" fill="#000" opacity="1">positive</text></g></g><path class="foreground" aria-hidden="true" d="" pointer-events="none" display="none"/></g></g></g><path class="foreground" aria-hidden="true" d="" pointer-events="none" display="none"/></g></g><g class="mark-text role-legend-title" pointer-events="none"><text text-anchor="start" transform="translate(0,9)" font-family="sans-serif" font-size="11px" font-weight="bold" fill="#000" opacity="1">Gram Stain</text></g></g><path class="foreground" aria-hidden="true" d="" pointer-events="none" display="none"/></g></g><g class="mark-group role-title"><g transform="translate(250,-22)"><path class="background" aria-hidden="true" d="M0,0h0v0h0Z" pointer-events="none"/><g><g class="mark-text role-title-text" role="graphics-symbol" aria-roledescription="title" aria-label="Title text 'MIC by Antibiotic and Gram Stain (log scale)'" pointer-events="none"><text text-anchor="middle" transform="translate(0,10)" font-family="sans-serif" font-size="13px" font-weight="bold" fill="#000" opacity="1">MIC by Antibiotic and Gram Stain (log scale)</text></g></g><path class="foreground" aria-hidden="true" d="" pointer-events="none" display="none"/></g></g></g><path class="foreground" aria-hidden="true" d="" display="none"/></g></g></g></svg>